# xmcd CD database file
#
# Track frame offsets:
#	150
#	18294
#	36707
#	50588
#	65239
#	82432
#	100182
#	119087
#	135951
#	151508
#	168557
#	190459
#	201809
#	214991
#	232310
#	248948
#
# Disc length: 3511 seconds
#
# Revision: 0
# Processed by: cddbd v1.5.2PL0 Copyright (c) Steve Scherf et al.
# Submitted via: Feurio! 1.68 - http://www.feurio.com
#
DISCID=f80db510
DTITLE=Nick Mackenzie - Me And Maxine
DYEAR=1900
DGENRE=
TTITLE0=Me And Maxine
TTITLE1=Tryin' To Matter
TTITLE2=Angelina
TTITLE3=Katie Wants A Fast One
TTITLE4=Blue Moon
TTITLE5=All The Way From Memphis
TTITLE6=Margaritaville
TTITLE7=No More Runnin' Around
TTITLE8=Fallin' Never Felt So Good
TTITLE9=A Little Drink A Little Dance
TTITLE10=Living Without You
TTITLE11=I've Got A Quarter In My Pocket
TTITLE12=Girls Like That
TTITLE13=Sometimes She Forgets
TTITLE14=Last Time I Saw Heaven
TTITLE15=Walk On Faith
EXTD=
EXTT0=
EXTT1=
EXTT2=
EXTT3=
EXTT4=
EXTT5=
EXTT6=
EXTT7=
EXTT8=
EXTT9=
EXTT10=
EXTT11=
EXTT12=
EXTT13=
EXTT14=
EXTT15=
PLAYORDER=
